# xmcd
#
# Track frame offsets: 
#        150
#        13811
#        32904
#        48689
#        69532
#        84245
#        100844
#        114126
#        127799
#        144549
#        156985
#        177392
#        191544
#        207056
#        225299
#        241263
#        255560
#
# Disc length: 3640 seconds
#
# Revision: 1
# Processed by: cddbd v1.5.2PL0 Copyright (c) Steve Scherf et al.
# Submitted via: ExactAudioCopy v1.3
#
DISCID=d90e3611
DTITLE=Various_Artists - CMT_NUMBER_ONES_volume_2
DYEAR=2009
DGENRE=Country
TTITLE0=REBA_MCENTIRE-Strange
TTITLE1=TIM_MCGRAW-She's_My_Kind_Of_Rain
TTITLE2=RASCAL_FLATTS-Stand
TTITLE3=SUGARLAND-Already_Gone
TTITLE4=JOHNNY_REID-Darlin
TTITLE5=DOC_WALKER-Beautiful_Life
TTITLE6=LEANN_RIMES-Nothin_Bout_Love_Makes_Sense
TTITLE7=EMERSON_DRIVE-Countrified_Soul
TTITLE8=GRETCHEN_WILSON-Redneck_Woman
TTITLE9=GEORGE_CANYON-Ring_Of_Fire
TTITLE10=TIM_MCGRAW-Last_Dollar(Fly_Away)
TTITLE11=JOE_NICHOLS-Tequila_Makes_Her_Clothes_Fall_Off
TTITLE12=BLAKE_SHELTON-Some_Beach
TTITLE13=LEE_ANN_WOMACK-I_Hope_You_Dance
TTITLE14=BIG_&_RICH-Lost_In_The_Moment
TTITLE15=PAUL_BRANDT-Didn't_Even_See_The_Dust
TTITLE16=RODNEY_ATKINS-Watching_You
EXTD=
EXTT0=
EXTT1=
EXTT2=
EXTT3=
EXTT4=
EXTT5=
EXTT6=
EXTT7=
EXTT8=
EXTT9=
EXTT10=
EXTT11=
EXTT12=
EXTT13=
EXTT14=
EXTT15=
EXTT16=
PLAYORDER=
